Coordinates
version=1
nRows=8
nColumns=40
inDegrees=yes

Units are S.I. units (second, meters, Newtons, ...)
Angles are in degrees.

endheader
time	pelvis_tilt	pelvis_list	pelvis_rotation	pelvis_tx	pelvis_ty	pelvis_tz	hip_flexion_r	hip_adduction_r	hip_rotation_r	knee_angle_r	knee_angle_r_beta	ankle_angle_r	subtalar_angle_r	mtp_angle_r	hip_flexion_l	hip_adduction_l	hip_rotation_l	knee_angle_l	knee_angle_l_beta	ankle_angle_l	subtalar_angle_l	mtp_angle_l	lumbar_extension	lumbar_bending	lumbar_rotation	arm_flex_r	arm_add_r	arm_rot_r	elbow_flex_r	pro_sup_r	wrist_flex_r	wrist_dev_r	arm_flex_l	arm_add_l	arm_rot_l	elbow_flex_l	pro_sup_l	wrist_flex_l	wrist_dev_l
      8.21000000	     -2.95269088	     -5.50041386	      5.21528550	      1.07178998	      0.93320611	      0.51785667	      8.04222355	      5.06350219	    -17.26155221	     14.09068260	     14.09068260	     10.60865841	      0.95874555	     -3.80425457	     35.86202921	    -11.67567569	      1.67348722	     44.46063479	     44.46063479	     10.77764218	    -18.42068641	     16.78812501	    -11.42000935	      5.56212171	      1.68844812	     20.39445884	    -15.47906796	     -7.88150409	     67.39773246	     45.00946071	      0.00000000	      0.00000000	      5.73865815	     -7.61349653	      0.28181073	     29.51516506	     46.62301365	      0.00000000	      0.00000000
      8.22171429	     -3.11816493	     -5.56945385	      5.20696896	      1.07002553	      0.93293086	      0.51788775	      7.36450993	      5.22363740	    -17.49232291	     13.49564044	     13.49564044	     10.88929776	      1.76780967	     -3.88636640	     36.13665441	    -11.38766741	      1.63629747	     40.40765913	     40.40765913	     10.44340207	    -17.77909633	     16.26843805	    -11.40059535	      5.62825006	      1.69698474	     22.72138862	    -15.54213777	     -7.79284555	     70.29342909	     44.92544905	      0.00000000	      0.00000000	      4.43368920	     -7.46748459	      0.43407547	     27.70955469	     46.56997519	      0.00000000	      0.00000000
      8.23342857	     -3.28626574	     -5.74957572	      5.15789242	      1.06847823	      0.93239190	      0.51788748	      6.66536257	      5.47205970	    -17.98917655	     12.89097871	     12.89097871	     11.24728994	      3.03842043	     -4.03868169	     36.21567080	    -11.29485210	      1.46977687	     36.08987686	     36.08987686	      8.90285016	    -16.93697491	     12.43836734	    -11.39123936	      5.84758646	      2.64582482	     23.89238562	    -16.56597813	     -7.71260396	     75.05797897	     44.80969508	      0.00000000	      0.00000000	      4.06314847	     -7.02310981	      0.87038203	     24.74229453	     46.45400511	      0.00000000	      0.00000000
      8.24514286	     -3.46270297	     -5.86094149	      5.05725018	      1.06701891	      0.93187158	      0.51793258	      5.92535112	      5.73959652	    -17.95120206	     12.17262912	     12.17262912	     11.49392694	      3.54447713	     -4.07732200	     36.30201294	    -11.13481300	      1.34749049	     32.10331485	     32.10331485	      8.91835816	    -15.26252819	     12.51213162	    -11.31777207	      5.92466148	      2.67041730	     26.41773139	    -16.29359373	     -7.96732108	     77.04393709	     44.77077546	      0.00000000	      0.00000000	      2.43542366	     -7.01528905	      0.99390000	     23.88388476	     46.39335008	      0.00000000	      0.00000000
      8.25685714	     -3.63225386	     -6.06107024	      4.98411500	      1.06573123	      0.93112690	      0.51780219	      5.07598795	      6.10443763	    -18.08834251	     11.26945344	     11.26945344	     11.72131886	      4.37269390	     -4.16991010	     36.38946146	    -11.09524578	      1.16102354	     28.34655380	     28.34655380	      8.86569011	    -13.10073391	     12.28533236	    -11.22774928	      6.17244106	      2.66381357	     28.92861405	    -16.06458817	     -8.02094327	     79.43598187	     44.71462579	      0.00000000	      0.00000000	      0.83962963	     -6.91241181	      1.20270971	     23.17731052	     46.31247200	      0.00000000	      0.00000000
      8.26857143	     -3.80014371	     -6.21870237	      4.81240081	      1.06469392	      0.93024553	      0.51770348	      4.24077879	      6.42084764	    -18.05613668	     10.45409183	     10.45409183	     12.02112304	      5.10317962	     -4.29671854	     36.37440133	    -11.06584006	      0.84036987	     24.81617906	     24.81617906	      8.83103989	    -10.89497269	     12.32882207	    -11.10464322	      6.32628260	      2.85716178	     31.18661140	    -15.92648390	     -8.02959518	     81.51159505	     44.66411216	      0.00000000	      0.00000000	     -0.82415574	     -6.93535251	      1.37108453	     22.59560741	     46.23845645	      0.00000000	      0.00000000
      8.28028571	     -3.95440174	     -6.43059465	      4.66449155	      1.06374032	      0.92920800	      0.51750697	      3.33731769	      6.80065785	    -18.03545922	      9.53502101	      9.53502101	     12.20928403	      5.91161799	     -4.39443395	     36.37575213	    -11.10191949	      0.47935585	     21.68581744	     21.68581744	      8.82979264	     -8.60133536	     12.40323487	    -11.00524566	      6.50846525	      2.96736329	     33.49846344	    -15.71647545	     -7.97216971	     83.71983497	     44.60825013	      0.00000000	      0.00000000	     -2.42247168	     -6.83740505	      1.59379230	     22.21870327	     46.15094731	      0.00000000	      0.00000000
      8.29200000	     -4.03586907	     -6.71207792	      4.51735081	      1.06307586	      0.92794782	      0.51718562	      2.24767992	      7.28159791	    -18.02881567	      8.42028158	      8.42028158	     12.21543657	      6.79730333	     -5.06696555	     36.42253890	    -11.24741494	     -0.08776695	     19.18779327	     19.18779327	      8.46557607	     -6.45695882	     11.41742785	    -10.97390632	      6.85590171	      3.25746490	     35.52491529	    -15.73528609	     -7.86865839	     86.53848452	     44.72808116	      0.00000000	      0.00000000	     -4.83590037	     -7.60182996	      7.19708765	     24.07026885	     44.88644380	      0.00000000	      0.00000000
